<svg width="66" height="66" viewBox="0 0 66 66" fill="none" xmlns="http://www.w3.org/2000/svg">
<path d="M49 33C49 41.8366 41.8366 49 33 49M49 33C49 24.1634 41.8366 17 33 17C24.1634 17 17 24.1634 17 33M49 33C36.2 24.2 33 40.3333 33 49.5M33 49C24.1634 49 17 41.8366 17 33M33 49C33 40 29.8 24.2 17 33M33 30C31.3431 30 30 31.3431 30 33C30 34.6569 31.3431 36 33 36C34.6569 36 36 34.6569 36 33C36 31.3431 34.6569 30 33 30ZM33 30V22M65 33C65 50.6731 50.6731 65 33 65C15.3269 65 1 50.6731 1 33C1 15.3269 15.3269 1 33 1C50.6731 1 65 15.3269 65 33ZM58 33C58 46.8071 46.8071 58 33 58C19.1929 58 8 46.8071 8 33C8 19.1929 19.1929 8 33 8C46.8071 8 58 19.1929 58 33ZM63 33C63 49.5685 49.5685 63 33 63C16.4315 63 3 49.5685 3 33C3 16.4315 16.4315 3 33 3C49.5685 3 63 16.4315 63 33Z" stroke="black"/>
</svg>
